<svg xmlns="http://www.w3.org/2000/svg" width="36" height="36" viewBox="0 0 36 36"><g fill="none" fill-rule="evenodd" transform="translate(7 5)"><path fill="#E6E6E6" d="M9 19c-3.333.667-5 1.687-5 3.062v2.253c0 .417-1.238.572-2.513-.064-.293-.146-.487-.519-.487-.936v-2.253c0-1.28.609-2.418 1.516-2.836C3.789 17.64 5.034 17.232 6.25 17L9 19z"></path><path stroke="#404040" stroke-linejoin="round" stroke-width="1.5" d="M8 17a26.95 26.95 0 0 0-4.979 1.226A3 3 0 0 0 1 21.062v2.253a1 1 0 0 0 .65.936C4.766 25.417 7.883 26 11 26s6.234-.583 9.35-1.749a1 1 0 0 0 .65-.936v-2.27a3 3 0 0 0-2.017-2.834A26.687 26.687 0 0 0 14 17"></path><path stroke="#404040" stroke-linecap="round" stroke-linejoin="round" d="M8 15v2.44a1 1 0 0 0 .517.875c.828.457 1.655.685 2.483.685.828 0 1.655-.228 2.483-.685a1 1 0 0 0 .517-.876V15"></path><path fill="var(--primary-color)" d="M3.5 5.5h1v6h-1a3 3 0 0 1 0-6zM17.274 5.5h1a3 3 0 1 1 0 6h-1v-6z"></path><path stroke="#404040" stroke-linecap="round" d="M8.53 2.488A4 4 0 0 0 6 6.208V9.5A7.5 7.5 0 0 0 7.5 14l.3.4a4 4 0 0 0 6.4 0l.3-.4A7.5 7.5 0 0 0 16 9.5V6.208a4 4 0 0 0-2.53-3.72A6.677 6.677 0 0 0 11 2"></path><path stroke="#404040" stroke-width="1.5" d="M4 11h-.5a2.5 2.5 0 0 1 0-5H4a6 6 0 0 1 6-6h2a6 6 0 0 1 6 6h.5a2.5 2.5 0 1 1 0 5h-1.226"></path><path stroke="#404040" d="M4 10.25A2.75 2.75 0 0 0 6.75 13H9"></path><rect width="2" height="1" x="8.5" y="12.5" fill="#FFF" stroke="#404040" rx=".5"></rect></g></svg>