<svg width="36" height="37" viewBox="0 0 36 37" fill="none" xmlns="http://www.w3.org/2000/svg"><path d="M29 4.57533H7C5.89543 4.57533 5 5.47076 5 6.57533V24.8384C5 25.943 5.89543 26.8384 7 26.8384H11.0357V31.4298L18 26.8384H29C30.1046 26.8384 31 25.943 31 24.8384V6.57533C31 5.47076 30.1046 4.57533 29 4.57533Z" stroke="#404040" stroke-width="1.5"></path><path d="M16.0134 12.2385C16.0134 13.3356 16.9028 14.225 17.9999 14.225C19.0971 14.225 19.9865 13.3356 19.9865 12.2385V7.60315H16.0134V12.2385Z" fill="#FF00A4"></path><path d="M23.9597 12.2385C23.9597 13.3356 24.8491 14.225 25.9463 14.225C27.0434 14.225 27.9328 13.3356 27.9328 12.2385V10.9141L26.2774 7.60315H23.9597V12.2385Z" fill="#FF00A4"></path><path d="M12.0403 12.2385C12.0403 13.3356 11.1509 14.225 10.0537 14.225C8.95657 14.225 8.06716 13.3356 8.06716 12.2385V10.9141L9.72263 7.60315H12.0403V12.2385Z" fill="#FF00A4"></path><path d="M22.6353 14.2234L23.9597 12.899L25.9463 14.5545V23.8251H22.6353V14.2234Z" fill="#F2F2F2"></path><path d="M19.1588 24.3239H20.6487C20.923 24.3239 21.1454 24.1016 21.1454 23.8273V18.5298C21.1454 16.7926 19.7371 15.3844 18 15.3844C17.6529 15.3844 17.3189 15.4406 17.0067 15.5445C18.2571 15.9603 19.1588 17.1397 19.1588 18.5298V24.3239Z" fill="#F2F2F2"></path><path d="M27.9327 12.2385V10.9141L26.2772 7.60315H9.72255L8.06708 10.9141V12.2385" stroke="#404040" stroke-width="0.993281" stroke-linecap="round" stroke-linejoin="round"></path><path d="M8.06708 12.2389C8.06708 13.336 8.95649 14.2255 10.0536 14.2255C11.1508 14.2255 12.0402 13.336 12.0402 12.2389C12.0402 13.336 12.9296 14.2255 14.0268 14.2255C15.1239 14.2255 16.0133 13.336 16.0133 12.2389C16.0133 13.336 16.9027 14.2255 17.9999 14.2255C19.097 14.2255 19.9864 13.336 19.9864 12.2389C19.9864 13.336 20.8759 14.2255 21.973 14.2255C23.0702 14.2255 23.9596 13.336 23.9596 12.2389C23.9596 13.336 24.849 14.2255 25.9461 14.2255C27.0433 14.2255 27.9327 13.336 27.9327 12.2389" stroke="#404040" stroke-width="0.662187" stroke-linecap="round" stroke-linejoin="round"></path><path d="M8.39817 23.8272H10.0536V14.391C8.79094 14.391 8.06708 13.336 8.06708 12.2389M27.2705 23.8272H25.9461V14.391C27.2088 14.391 27.9327 13.336 27.9327 12.2389M12.7024 23.8272H15.3511V18.5297C15.3511 17.0668 16.537 15.8809 17.9999 15.8809V15.8809C19.4628 15.8809 20.6486 17.0668 20.6486 18.5297V23.8272H23.2974" stroke="#404040" stroke-width="0.993281" stroke-linecap="round" stroke-linejoin="round"></path><path d="M12.0403 12.2385V7.60315" stroke="#404040" stroke-width="0.662187" stroke-linecap="round" stroke-linejoin="round"></path><path d="M16.0134 12.2385V7.60315" stroke="#404040" stroke-width="0.662187" stroke-linecap="round" stroke-linejoin="round"></path><path d="M19.9865 12.2385V7.60315" stroke="#404040" stroke-width="0.662187" stroke-linecap="round" stroke-linejoin="round"></path><path d="M23.9597 12.2385V7.60315" stroke="#404040" stroke-width="0.662187" stroke-linecap="round" stroke-linejoin="round"></path><path d="M16.6757 19.8542C16.6757 19.6713 16.8239 19.5231 17.0068 19.5231C17.1896 19.5231 17.3378 19.6713 17.3378 19.8542V21.1785C17.3378 21.3614 17.1896 21.5096 17.0068 21.5096C16.8239 21.5096 16.6757 21.3614 16.6757 21.1785V19.8542Z" fill="#404040"></path><path d="M17.6689 20.1852C17.8518 20.1852 18 20.3336 18 20.5165C18 20.6993 17.8518 20.8478 17.6689 20.8478L17.0059 20.8478C16.823 20.8478 16.6748 20.6993 16.6748 20.5165C16.6748 20.3336 16.823 20.1852 17.0059 20.1852L17.6689 20.1852Z" fill="#404040"></path></svg>