<svg width="36" height="37" viewBox="0 0 36 37" fill="none" xmlns="http://www.w3.org/2000/svg"><path d="M19.5 31.761C19.9142 31.761 20.25 31.4252 20.25 31.011C20.25 30.5968 19.9142 30.261 19.5 30.261V31.761ZM26.7524 23.005C26.7524 23.4192 27.0882 23.755 27.5024 23.755C27.9166 23.755 28.2524 23.4192 28.2524 23.005H26.7524ZM10.5 5.755H24.5024V4.255H10.5V5.755ZM19.5 30.261H10.5V31.761H19.5V30.261ZM8.25 28.011V8.005H6.75V28.011H8.25ZM26.7524 8.005V12.4353H28.2524V8.005H26.7524ZM26.7524 12.4353V23.005H28.2524V12.4353H26.7524ZM10.5 30.261C9.25736 30.261 8.25 29.2537 8.25 28.011H6.75C6.75 30.0821 8.42893 31.761 10.5 31.761V30.261ZM24.5024 5.755C25.745 5.755 26.7524 6.76236 26.7524 8.005H28.2524C28.2524 5.93394 26.5735 4.255 24.5024 4.255V5.755ZM10.5 4.255C8.42893 4.255 6.75 5.93394 6.75 8.005H8.25C8.25 6.76236 9.25736 5.755 10.5 5.755V4.255Z" fill="#404040"></path><rect x="19" y="11.505" width="5" height="5" rx="0.5" stroke="#404040"></rect><rect x="10.5" y="12.0001" width="3" height="1" fill="#404040"></rect><rect x="10.5" y="15.0001" width="6" height="1" fill="#404040"></rect><rect x="14.5" y="18.005" width="10" height="1" fill="#404040"></rect><rect x="10.5" y="18.005" width="3" height="1" fill="#404040"></rect><rect x="10.5" y="21.005" width="10" height="1" fill="#404040"></rect><rect x="21.5" y="21.005" width="3" height="1" fill="#404040"></rect><rect x="10.5" y="24.005" width="4" height="1" fill="#404040"></rect><rect x="15.5" y="24.005" width="1" height="1" fill="#404040"></rect><path d="M24.5 31.7935C26.7091 31.7935 28.5 30.0026 28.5 27.7935C28.5 25.5843 26.7091 23.7935 24.5 23.7935C22.2909 23.7935 20.5 25.5843 20.5 27.7935C20.5 30.0026 22.2909 31.7935 24.5 31.7935Z" fill="#FF00A4"></path><path d="M23.3293 28.1287C23.1214 27.9469 22.8056 27.9679 22.6237 28.1758C22.4419 28.3836 22.4629 28.6995 22.6707 28.8813L23.3293 28.1287ZM24 29.38L23.6707 29.7563C23.7764 29.8488 23.9161 29.8925 24.0557 29.8769C24.1952 29.8613 24.3218 29.7877 24.4044 29.6741L24 29.38ZM26.4044 26.9241C26.5668 26.7008 26.5174 26.3881 26.2941 26.2256C26.0708 26.0632 25.7581 26.1126 25.5956 26.3359L26.4044 26.9241ZM22.6707 28.8813L23.6707 29.7563L24.3293 29.0037L23.3293 28.1287L22.6707 28.8813ZM24.4044 29.6741L26.4044 26.9241L25.5956 26.3359L23.5956 29.0859L24.4044 29.6741Z" fill="white"></path></svg>